<svg xmlns="http://www.w3.org/2000/svg" xmlns:xlink="http://www.w3.org/1999/xlink" width="16" height="16" viewBox="0 0 16 16">
  <path d="M9.466,10.932,6.841,8.24a4.293,4.293,0,0,1-2.45.766A4.448,4.448,0,0,1,0,4.5,4.448,4.448,0,0,1,4.391,0,4.448,4.448,0,0,1,8.782,4.5a4.562,4.562,0,0,1-.747,2.512L10.66,9.707a.529.529,0,0,1,0,.735l-.478.49a.5.5,0,0,1-.717,0ZM1.689,4.5a2.74,2.74,0,0,0,2.7,2.771A2.74,2.74,0,0,0,7.093,4.5a2.74,2.74,0,0,0-2.7-2.771A2.74,2.74,0,0,0,1.689,4.5Zm9.142,6.579.227-.233a1.1,1.1,0,0,0,.274-.483h3.323l-3.824.716h0Zm.5-.718h0a1.132,1.132,0,0,0-.047-.717h3.76l-3.713.717Zm-.049-.721h0a1.089,1.089,0,0,0-.226-.343l-.364-.373h4.676l-4.086.716Zm-.593-.719h0L9.946,8.16h5.687l-4.942.764Zm-.746-.765h0l-.715-.733h6.594l-5.879.734Zm-.718-.737-.482-.495c.041-.077.081-.157.118-.237h7.069l-6.705.732h0Zm-.363-.735h0a5.141,5.141,0,0,0,.275-.732H16l-7.137.732Zm.276-.737h0a5.2,5.2,0,0,0,.155-.731H16l-6.858.731Zm.156-.733h0A5.279,5.279,0,0,0,9.344,4.5V4.484h6.606l-6.655.733Zm.049-.738h0a5.26,5.26,0,0,0-.054-.731h6.549L9.343,4.48Zm-.054-.735h0a5.163,5.163,0,0,0-.162-.731h6.528l-6.366.731ZM9.126,3.01c-.049-.163-.107-.326-.172-.484-.034-.083-.071-.167-.11-.248h6.571L9.126,3.01Zm-.283-.734h0a5.086,5.086,0,0,0-.449-.765h6.7l-6.248.765ZM8.389,1.5h0a5.1,5.1,0,0,0-.5-.592c-.04-.041-.08-.081-.121-.12h6.933L8.389,1.5ZM7.77.79h0A4.97,4.97,0,0,0,6.813.072h7.415L7.77.79Z" transform="translate(0 2.458)" fill="currentColor"/>
</svg>
