<svg xmlns="http://www.w3.org/2000/svg" xmlns:xlink="http://www.w3.org/1999/xlink" width="128" height="128" viewBox="0 0 128 128">
  <g>
    <circle cx="64" cy="64" r="64" fill="#990080"/>
    <path d="M67.435,75.943l-18.7-18.7a31.28,31.28,0,1,1,8.508-8.508l18.7,18.7a3.61,3.61,0,0,1,0,5.1l-3.4,3.4a3.61,3.61,0,0,1-5.1,0Zm-55.4-44.662a19.25,19.25,0,1,0,19.25-19.25A19.272,19.272,0,0,0,12.031,31.281Zm65.124,45.7,1.616-1.616a7.6,7.6,0,0,0,1.951-3.353h23.672L77.156,76.986h0ZM80.728,72v0a7.681,7.681,0,0,0-.334-4.979h26.783L80.73,72Zm-.346-5.008h0a7.554,7.554,0,0,0-1.612-2.38L76.18,62.015H109.49L80.383,66.988Zm-4.224-4.995h0l-5.306-5.3h40.511L76.16,62Zm-5.317-5.314h0l-5.095-5.095h46.976l-41.88,5.1ZM65.724,51.56l-3.436-3.436c.292-.536.575-1.091.842-1.65h50.362L65.724,51.56h0Zm-2.585-5.106h0A35.161,35.161,0,0,0,65.1,41.366h48.884L63.141,46.454Zm1.967-5.117h0a35.351,35.351,0,0,0,1.105-5.08h47.751L65.107,41.339Zm1.109-5.094h0a35.778,35.778,0,0,0,.347-4.962V31.15h47.061L66.216,36.245Zm.346-5.124h0a35.65,35.65,0,0,0-.384-5.076h46.654l-46.27,5.078Zm-.388-5.108h0a35.106,35.106,0,0,0-1.154-5.078h46.506l-45.353,5.08Zm-1.16-5.1a35.255,35.255,0,0,0-1.225-3.361c-.246-.58-.508-1.159-.784-1.723h46.811l-44.8,5.085ZM63,15.813h0A35.141,35.141,0,0,0,59.8,10.5H107.51L63,15.813ZM59.762,10.45h0a35.665,35.665,0,0,0-3.533-4.115c-.282-.282-.571-.563-.862-.833h49.394l-45,4.949ZM55.354,5.486h0A35.352,35.352,0,0,0,48.539.5h52.822L55.354,5.488Z" transform="translate(13 25.5)" fill="#fff"/>
  </g>
</svg>
